<svg width="60" height="60" viewBox="0 0 60 60" fill="none" xmlns="http://www.w3.org/2000/svg">
<circle cx="30" cy="30" r="29.5" transform="matrix(-1 0 0 1 60 0)" stroke="black"/>
<path fill-rule="evenodd" clip-rule="evenodd" d="M39.5294 15.3116L43.3416 18.351C43.7097 18.7023 43.9161 19.1853 43.9129 19.6887C43.91 20.1921 43.6981 20.6726 43.3259 21.0198L40.429 24.4758L30.5702 36.2588C30.3995 36.4558 30.1698 36.5948 29.9136 36.6563L24.802 37.8083C24.1237 37.8357 23.5388 37.3457 23.4614 36.6851L23.7005 31.7449C23.7182 31.4926 23.8201 31.2532 23.9906 31.0633L33.424 19.8025L36.7462 15.832C37.3916 14.9713 38.6059 14.7443 39.5294 15.3116Z" stroke="black" stroke-width="2" stroke-linecap="round" stroke-linejoin="round"/>
<path d="M16.47 43C15.6581 43 15 42.988 15 43.7833C15 44.5787 15.6581 45.2233 16.47 45.2233V43ZM43.322 45.2233C44.1338 45.2233 44.792 44.5787 44.792 43.7833C44.792 42.988 44.1338 43 43.322 43V45.2233ZM34.7872 19.2636C34.4832 18.5261 33.6267 18.1696 32.8738 18.4672C32.121 18.7649 31.757 19.6041 32.0608 20.3415L34.7872 19.2636ZM40.753 25.8862C41.5449 25.711 42.0417 24.94 41.863 24.1643C41.684 23.3885 40.8971 22.9017 40.1051 23.077L40.753 25.8862ZM16.47 45.2233H43.322V43H29.5H16.47V45.2233ZM32.0608 20.3415C32.5169 21.4482 33.4534 23.0258 34.8479 24.2406C36.2682 25.4778 38.2907 26.4311 40.753 25.8862L40.1051 23.077C38.8454 23.3558 37.7574 22.921 36.8017 22.0884C35.8201 21.2334 35.1151 20.0597 34.7872 19.2636L32.0608 20.3415Z" fill="black"/>
</svg>
