<svg width="60" height="60" viewBox="0 0 60 60" fill="none" xmlns="http://www.w3.org/2000/svg">
<circle cx="30" cy="30" r="29.5" transform="matrix(-1 0 0 1 60 0)" stroke="black"/>
<path d="M36.9 38.08V40H22.17V38.47L30.9 29.92C32 28.84 32.74 27.91 33.12 27.13C33.52 26.33 33.72 25.53 33.72 24.73C33.72 23.49 33.29 22.53 32.43 21.85C31.59 21.15 30.38 20.8 28.8 20.8C26.34 20.8 24.43 21.58 23.07 23.14L21.54 21.82C22.36 20.86 23.4 20.12 24.66 19.6C25.94 19.08 27.38 18.82 28.98 18.82C31.12 18.82 32.81 19.33 34.05 20.35C35.31 21.35 35.94 22.73 35.94 24.49C35.94 25.57 35.7 26.61 35.22 27.61C34.74 28.61 33.83 29.76 32.49 31.06L25.35 38.08H36.9Z" fill="black"/>
</svg>
