<svg width="60" height="60" viewBox="0 0 60 60" fill="none" xmlns="http://www.w3.org/2000/svg">
<circle cx="30" cy="30" r="29.5" transform="matrix(-1 0 0 1 60 0)" stroke="black"/>
<path d="M28.08 27.61C31.12 27.61 33.33 28.16 34.71 29.26C36.11 30.34 36.81 31.86 36.81 33.82C36.81 35.04 36.52 36.13 35.94 37.09C35.38 38.05 34.53 38.81 33.39 39.37C32.25 39.91 30.85 40.18 29.19 40.18C27.69 40.18 26.26 39.94 24.9 39.46C23.56 38.96 22.48 38.3 21.66 37.48L22.71 35.77C23.41 36.49 24.33 37.08 25.47 37.54C26.61 37.98 27.84 38.2 29.16 38.2C30.9 38.2 32.24 37.81 33.18 37.03C34.14 36.25 34.62 35.21 34.62 33.91C34.62 32.47 34.08 31.38 33 30.64C31.94 29.9 30.14 29.53 27.6 29.53H23.13L24.21 19H35.7V20.92H26.1L25.38 27.61H28.08Z" fill="black"/>
</svg>
