<svg width="60" height="60" viewBox="0 0 60 60" fill="none" xmlns="http://www.w3.org/2000/svg">
<circle cx="30" cy="30" r="29.5" transform="matrix(-1 0 0 1 60 0)" stroke="black"/>
<path d="M29.7 28C31.9 28.12 33.57 28.72 34.71 29.8C35.87 30.86 36.45 32.25 36.45 33.97C36.45 35.17 36.16 36.24 35.58 37.18C35 38.1 34.14 38.83 33 39.37C31.86 39.91 30.47 40.18 28.83 40.18C27.31 40.18 25.87 39.94 24.51 39.46C23.17 38.96 22.09 38.3 21.27 37.48L22.32 35.77C23.02 36.49 23.95 37.08 25.11 37.54C26.27 37.98 27.51 38.2 28.83 38.2C30.55 38.2 31.88 37.83 32.82 37.09C33.76 36.33 34.23 35.29 34.23 33.97C34.23 32.67 33.76 31.65 32.82 30.91C31.88 30.17 30.46 29.8 28.56 29.8H27.06V28.21L32.88 20.92H22.14V19H35.64V20.53L29.7 28Z" fill="black"/>
</svg>
