<svg width="60" height="60" viewBox="0 0 60 60" fill="none" xmlns="http://www.w3.org/2000/svg">
<circle cx="30" cy="30" r="29.5" transform="matrix(-1 0 0 1 60 0)" stroke="black"/>
<path d="M28.05 33.7C28.05 32.88 28.18 32.16 28.44 31.54C28.72 30.92 29.06 30.39 29.46 29.95C29.86 29.51 30.38 29.01 31.02 28.45C31.88 27.69 32.51 27.03 32.91 26.47C33.33 25.89 33.54 25.19 33.54 24.37C33.54 23.27 33.11 22.39 32.25 21.73C31.39 21.05 30.21 20.71 28.71 20.71C26.23 20.71 24.32 21.52 22.98 23.14L21.39 21.94C23.09 19.86 25.58 18.82 28.86 18.82C30.96 18.82 32.63 19.29 33.87 20.23C35.13 21.17 35.76 22.44 35.76 24.04C35.76 24.86 35.62 25.59 35.34 26.23C35.08 26.85 34.75 27.38 34.35 27.82C33.97 28.26 33.46 28.77 32.82 29.35C31.96 30.13 31.32 30.83 30.9 31.45C30.48 32.05 30.27 32.8 30.27 33.7H28.05ZM29.16 40.15C28.72 40.15 28.35 40 28.05 39.7C27.75 39.38 27.6 39.01 27.6 38.59C27.6 38.15 27.75 37.79 28.05 37.51C28.35 37.21 28.72 37.06 29.16 37.06C29.62 37.06 30 37.21 30.3 37.51C30.6 37.79 30.75 38.15 30.75 38.59C30.75 39.01 30.59 39.38 30.27 39.7C29.97 40 29.6 40.15 29.16 40.15Z" fill="black"/>
</svg>
